<?xml version="1.0" encoding="UTF-8" standalone="no"?>
<!-- Created with Inkscape (http://www.inkscape.org/) -->

<svg
   xmlns:dc="http://purl.org/dc/elements/1.1/"
   xmlns:cc="http://creativecommons.org/ns#"
   xmlns:rdf="http://www.w3.org/1999/02/22-rdf-syntax-ns#"
   xmlns:svg="http://www.w3.org/2000/svg"
   xmlns="http://www.w3.org/2000/svg"
   xmlns:xlink="http://www.w3.org/1999/xlink"
   xmlns:sodipodi="http://sodipodi.sourceforge.net/DTD/sodipodi-0.dtd"
   xmlns:inkscape="http://www.inkscape.org/namespaces/inkscape"
   width="31.401764mm"
   height="30.772793mm"
   viewBox="0 0 111.26609 109.03745"
   id="svg2"
   version="1.1"
   inkscape:version="0.91 r13725"
   sodipodi:docname="Wal.svg">
  <title
     id="title4136">whale - coloured</title>
  <defs
     id="defs4">
    <linearGradient
       inkscape:collect="always"
       id="linearGradient5999">
      <stop
         style="stop-color:#dfdfdf;stop-opacity:1;"
         offset="0"
         id="stop6001" />
      <stop
         id="stop6013"
         offset="0.1536192"
         style="stop-color:#e7e7e7;stop-opacity:1" />
      <stop
         id="stop6007"
         offset="0.34012583"
         style="stop-color:#d1d1d1;stop-opacity:1" />
      <stop
         style="stop-color:#ececec;stop-opacity:1"
         offset="0.47892144"
         id="stop6009" />
      <stop
         id="stop6011"
         offset="0.69145226"
         style="stop-color:#d7d7d7;stop-opacity:1" />
      <stop
         style="stop-color:#ececec;stop-opacity:1"
         offset="1"
         id="stop6003" />
    </linearGradient>
    <pattern
       inkscape:collect="always"
       xlink:href="#Polkadots-large-1"
       id="pattern5815-8"
       patternTransform="matrix(1.075,0,0,1.15,-24.000309,927.9999)" />
    <pattern
       inkscape:stockid="Polka dots, large"
       id="Polkadots-large-1"
       patternTransform="translate(0,0) scale(10,10)"
       height="10"
       width="10"
       patternUnits="userSpaceOnUse"
       inkscape:collect="always">
      <circle
         id="circle5505-4"
         r="0.45"
         cy="0.810"
         cx="2.567"
         style="fill:black;stroke:none" />
      <circle
         id="circle5507-0"
         r="0.45"
         cy="2.33"
         cx="3.048"
         style="fill:black;stroke:none" />
      <circle
         id="circle5509-7"
         r="0.45"
         cy="2.415"
         cx="4.418"
         style="fill:black;stroke:none" />
      <circle
         id="circle5511-0"
         r="0.45"
         cy="3.029"
         cx="1.844"
         style="fill:black;stroke:none" />
      <circle
         id="circle5513-5"
         r="0.45"
         cy="1.363"
         cx="6.08"
         style="fill:black;stroke:none" />
      <circle
         id="circle5515-5"
         r="0.45"
         cy="4.413"
         cx="5.819"
         style="fill:black;stroke:none" />
      <circle
         id="circle5517-0"
         r="0.45"
         cy="4.048"
         cx="4.305"
         style="fill:black;stroke:none" />
      <circle
         id="circle5519-1"
         r="0.45"
         cy="3.045"
         cx="5.541"
         style="fill:black;stroke:none" />
      <circle
         id="circle5521-1"
         r="0.45"
         cy="5.527"
         cx="4.785"
         style="fill:black;stroke:none" />
      <circle
         id="circle5523-2"
         r="0.45"
         cy="5.184"
         cx="2.667"
         style="fill:black;stroke:none" />
      <circle
         id="circle5525-0"
         r="0.45"
         cy="1.448"
         cx="7.965"
         style="fill:black;stroke:none" />
      <circle
         id="circle5527-3"
         r="0.45"
         cy="5.049"
         cx="7.047"
         style="fill:black;stroke:none" />
      <circle
         id="circle5529-7"
         r="0.45"
         cy="0.895"
         cx="4.340"
         style="fill:black;stroke:none" />
      <circle
         id="circle5531-8"
         r="0.45"
         cy="0.340"
         cx="7.125"
         style="fill:black;stroke:none" />
      <circle
         id="circle5533-7"
         r="0.45"
         cy="1.049"
         cx="9.553"
         style="fill:black;stroke:none" />
      <circle
         id="circle5535-0"
         r="0.45"
         cy="2.689"
         cx="7.006"
         style="fill:black;stroke:none" />
      <circle
         id="circle5537-7"
         r="0.45"
         cy="2.689"
         cx="8.909"
         style="fill:black;stroke:none" />
      <circle
         id="circle5539-5"
         r="0.45"
         cy="4.407"
         cx="9.315"
         style="fill:black;stroke:none" />
      <circle
         id="circle5541-4"
         r="0.45"
         cy="3.870"
         cx="7.820"
         style="fill:black;stroke:none" />
      <circle
         id="circle5543-0"
         r="0.45"
         cy="5.948"
         cx="8.270"
         style="fill:black;stroke:none" />
      <circle
         id="circle5545-1"
         r="0.45"
         cy="7.428"
         cx="7.973"
         style="fill:black;stroke:none" />
      <circle
         id="circle5547-1"
         r="0.45"
         cy="8.072"
         cx="9.342"
         style="fill:black;stroke:none" />
      <circle
         id="circle5549-1"
         r="0.45"
         cy="9.315"
         cx="8.206"
         style="fill:black;stroke:none" />
      <circle
         id="circle5551-2"
         r="0.45"
         cy="9.475"
         cx="9.682"
         style="fill:black;stroke:none" />
      <circle
         id="circle5553-4"
         r="0.45"
         cy="6.186"
         cx="9.688"
         style="fill:black;stroke:none" />
      <circle
         id="circle5555-8"
         r="0.45"
         cy="6.296"
         cx="3.379"
         style="fill:black;stroke:none" />
      <circle
         id="circle5557-6"
         r="0.45"
         cy="8.204"
         cx="2.871"
         style="fill:black;stroke:none" />
      <circle
         id="circle5559-2"
         r="0.45"
         cy="8.719"
         cx="4.59"
         style="fill:black;stroke:none" />
      <circle
         id="circle5561-6"
         r="0.45"
         cy="9.671"
         cx="3.181"
         style="fill:black;stroke:none" />
      <circle
         id="circle5563-4"
         r="0.45"
         cy="7.315"
         cx="5.734"
         style="fill:black;stroke:none" />
      <circle
         id="circle5565-4"
         r="0.45"
         cy="6.513"
         cx="6.707"
         style="fill:black;stroke:none" />
      <circle
         id="circle5567-0"
         r="0.45"
         cy="9.670"
         cx="5.730"
         style="fill:black;stroke:none" />
      <circle
         id="circle5569-5"
         r="0.45"
         cy="8.373"
         cx="6.535"
         style="fill:black;stroke:none" />
      <circle
         id="circle5571-3"
         r="0.45"
         cy="7.154"
         cx="4.37"
         style="fill:black;stroke:none" />
      <circle
         id="circle5573-0"
         r="0.45"
         cy="7.25"
         cx="0.622"
         style="fill:black;stroke:none" />
      <circle
         id="circle5575-2"
         r="0.45"
         cy="5.679"
         cx="0.831"
         style="fill:black;stroke:none" />
      <circle
         id="circle5577-8"
         r="0.45"
         cy="8.519"
         cx="1.257"
         style="fill:black;stroke:none" />
      <circle
         id="circle5579-2"
         r="0.45"
         cy="6.877"
         cx="1.989"
         style="fill:black;stroke:none" />
      <circle
         id="circle5581-4"
         r="0.45"
         cy="3.181"
         cx="0.374"
         style="fill:black;stroke:none" />
      <circle
         id="circle5583-2"
         r="0.45"
         cy="1.664"
         cx="1.166"
         style="fill:black;stroke:none" />
      <circle
         id="circle5585-6"
         r="0.45"
         cy="0.093"
         cx="1.151"
         style="fill:black;stroke:none" />
      <circle
         id="circle5587-6"
         r="0.45"
         cy="10.093"
         cx="1.151"
         style="fill:black;stroke:none" />
      <circle
         id="circle5589-5"
         r="0.45"
         cy="4.451"
         cx="1.302"
         style="fill:black;stroke:none" />
      <circle
         id="circle5591-3"
         r="0.45"
         cy="3.763"
         cx="3.047"
         style="fill:black;stroke:none" />
    </pattern>
    <radialGradient
       inkscape:collect="always"
       xlink:href="#linearGradient5999"
       id="radialGradient6005"
       cx="81.06614"
       cy="1018.7454"
       fx="81.06614"
       fy="1018.7454"
       r="14.409675"
       gradientTransform="matrix(1,0,0,0.30304303,0,710.02172)"
       gradientUnits="userSpaceOnUse" />
  </defs>
  <sodipodi:namedview
     id="base"
     pagecolor="#ffffff"
     bordercolor="#666666"
     borderopacity="1.0"
     inkscape:pageopacity="0.0"
     inkscape:pageshadow="2"
     inkscape:zoom="2"
     inkscape:cx="96.874565"
     inkscape:cy="38.580595"
     inkscape:document-units="mm"
     inkscape:current-layer="layer1"
     showgrid="false"
     inkscape:window-width="1642"
     inkscape:window-height="1053"
     inkscape:window-x="820"
     inkscape:window-y="263"
     inkscape:window-maximized="0"
     inkscape:snap-global="false"
     fit-margin-top="1"
     fit-margin-right="1"
     fit-margin-bottom="1"
     fit-margin-left="1" />
  <metadata
     id="metadata7">
    <rdf:RDF>
      <cc:Work
         rdf:about="">
        <dc:format>image/svg+xml</dc:format>
        <dc:type
           rdf:resource="http://purl.org/dc/dcmitype/StillImage" />
        <dc:title>whale - coloured</dc:title>
        <dc:subject>
          <rdf:Bag>
            <rdf:li>whale</rdf:li>
            <rdf:li>animal</rdf:li>
            <rdf:li>sea</rdf:li>
            <rdf:li>wal</rdf:li>
            <rdf:li>tier</rdf:li>
            <rdf:li>meer</rdf:li>
            <rdf:li>line art</rdf:li>
            <rdf:li>outline</rdf:li>
            <rdf:li></rdf:li>
          </rdf:Bag>
        </dc:subject>
        <dc:date>2015-03-03</dc:date>
        <dc:creator>
          <cc:Agent>
            <dc:title>Frank Tremmel</dc:title>
          </cc:Agent>
        </dc:creator>
        <dc:description>coloured line art whale</dc:description>
        <cc:license
           rdf:resource="http://creativecommons.org/publicdomain/zero/1.0/" />
      </cc:Work>
      <cc:License
         rdf:about="http://creativecommons.org/publicdomain/zero/1.0/">
        <cc:permits
           rdf:resource="http://creativecommons.org/ns#Reproduction" />
        <cc:permits
           rdf:resource="http://creativecommons.org/ns#Distribution" />
        <cc:permits
           rdf:resource="http://creativecommons.org/ns#DerivativeWorks" />
      </cc:License>
    </rdf:RDF>
  </metadata>
  <g
     inkscape:label="Ebene 1"
     inkscape:groupmode="layer"
     id="layer1"
     transform="translate(2.5327582,-944.2716)"
     style="display:inline">
    <path
       style="fill:#bcdfff;fill-opacity:1;fill-rule:evenodd;stroke:#ff0000;stroke-width:0.35433072;stroke-linecap:butt;stroke-linejoin:miter;stroke-miterlimit:4;stroke-dasharray:none;stroke-opacity:1"
       d="m 30.5,959.3622 c -3.70119,-2.65595 -7.239125,-5.06702 -9.625,-5.75 l -10.25,-0.75 c -2.7478017,-1.70504 -5.9891745,-4.15043 -7.5,-4 -0.5360464,1.55103 -1.8184806,1.85809 -0.5,6.5 2.4795339,4.52909 4.1189436,9.22621 9.75,13.125 l 9,8.375 -5.625,17.375 c -1.793947,6.3945 -1.955515,12.0636 -0.75,17.125 2.049513,9.1414 8.2084,15.1217 14.5,21 l -7.125,3.125 1.125,2.125 12,5.25 7.375,-1.375 14.625,6.25 11.125,0.75 c 4.23737,-1.3296 8.751447,-1.829 12.375,-5 l 6,-4.75 6.5,-2.875 3.875,-6.375 6,-3.375 c 0.80394,-3.0184 -0.2077,-3.3135 -0.625,-4.5 l -8.75,0.375 1.375,-3.5 -0.625,-2.75 4.375,-0.125 c 2.75386,-2.0148 2.7657,-4.2789 1.875,-6.625 l -15.625,-1 -8.75,-0.875 c -2.5,-3.25 -5,-4.3333 -7.5,-3.25 -5.46746,2.4366 -9.155102,3.6867 -11.625,4.125 -16.140775,-1.5625 -21.653068,-8.62061 -22.25,-11.375 l -0.25,-17 12,-8.625 7.625,-2.875 3,-5.25 0.25,-5.125 c -0.445811,-2.3945 -1.964948,-1.9268 -3.375,-1.75 l -5.25,5.25 -5.75,-0.625 c -3.375,-1.84874 -6.75,-2.02535 -10.125,-0.875 l -1.5,-1.125 z"
       id="path4330"
       inkscape:connector-curvature="0"
       sodipodi:nodetypes="ccccccccccccccccccccccccccccccccccccccccccc" />
    <g
       id="g4324"
       style="fill:#94b7d6;fill-opacity:1">
      <path
         sodipodi:nodetypes="cssccsssscssc"
         inkscape:connector-curvature="0"
         id="path4300"
         d="m 71.334619,1032.6724 c -1.596257,1.4854 -3.485427,2.8555 -5.067041,3.685 -2.654054,1.392 -7.180362,2.4679 -11.047603,2.7551 -3.867248,0.2873 -5.207336,0.056 -5.207336,0.056 -0.633323,0.2445 -1.095343,0.4279 -1.55561,0.5686 0,0 3.778496,0.4531 6.824219,0.2555 3.923284,-0.2546 8.663406,-0.9872 11.607422,-2.5312 2.594743,-1.3609 5.334114,-4.0613 7.521484,-6.5352 1.09366,-1.2369 1.937909,-2.446 2.611328,-3.5723 0.673419,-1.1263 1.103516,-2.1194 1.103516,-2.9922 -1.067895,1.9067 -1.691476,2.8388 -2.953416,4.3558 -1.493238,1.795 -2.473527,2.687 -3.836963,3.9557 z"
         style="color:#000000;font-style:normal;font-variant:normal;font-weight:normal;font-stretch:normal;font-size:medium;line-height:normal;font-family:sans-serif;text-indent:0;text-align:start;text-decoration:none;text-decoration-line:none;text-decoration-style:solid;text-decoration-color:#000000;letter-spacing:normal;word-spacing:normal;text-transform:none;direction:ltr;block-progression:tb;writing-mode:lr-tb;baseline-shift:baseline;text-anchor:start;white-space:normal;clip-rule:nonzero;display:inline;overflow:visible;visibility:visible;opacity:1;isolation:auto;mix-blend-mode:normal;color-interpolation:sRGB;color-interpolation-filters:linearRGB;solid-color:#000000;solid-opacity:1;fill:#94b7d6;fill-opacity:1;fill-rule:evenodd;stroke:none;stroke-width:1px;stroke-linecap:butt;stroke-linejoin:miter;stroke-miterlimit:4;stroke-dasharray:none;stroke-dashoffset:0;stroke-opacity:1;color-rendering:auto;image-rendering:auto;shape-rendering:auto;text-rendering:auto;enable-background:accumulate" />
      <path
         sodipodi:nodetypes="cssssccsssssc"
         inkscape:connector-curvature="0"
         id="path4302"
         d="m 88,1024.5371 c -0.870317,1.6097 -1.531202,2.9998 -2.595178,4.0976 -1.319091,1.361 -4.475516,2.5935 -6.663865,4.2523 -2.991536,2.2677 -5.335548,5.1456 -8.779354,6.7129 -3.018694,1.3737 -6.325651,1.556 -9.594819,1.5232 -4.303105,-0.043 -8.451024,-0.5327 -12.713387,-1.113 -0.321328,0.1634 -0.500916,0.2006 -0.828282,0.366 2.01439,0.5098 4.191774,0.8157 6.519047,1.1078 4.609596,0.5785 9.616686,0.7876 13.62794,0.3618 2.373496,-0.2519 4.606119,-1.1987 6.467145,-2.6978 2.998335,-2.4152 5.749077,-5.1531 9.086085,-7.1278 2.039081,-1.2066 4.10252,-2.9503 5.00828,-5.1755 0.291091,-0.7151 0.460358,-1.4837 0.466388,-2.3075 z"
         style="color:#000000;font-style:normal;font-variant:normal;font-weight:normal;font-stretch:normal;font-size:medium;line-height:normal;font-family:sans-serif;text-indent:0;text-align:start;text-decoration:none;text-decoration-line:none;text-decoration-style:solid;text-decoration-color:#000000;letter-spacing:normal;word-spacing:normal;text-transform:none;direction:ltr;block-progression:tb;writing-mode:lr-tb;baseline-shift:baseline;text-anchor:start;white-space:normal;clip-rule:nonzero;display:inline;overflow:visible;visibility:visible;opacity:1;isolation:auto;mix-blend-mode:normal;color-interpolation:sRGB;color-interpolation-filters:linearRGB;solid-color:#000000;solid-opacity:1;fill:#94b7d6;fill-opacity:1;fill-rule:evenodd;stroke:none;stroke-width:1px;stroke-linecap:butt;stroke-linejoin:miter;stroke-miterlimit:4;stroke-dasharray:none;stroke-dashoffset:0;stroke-opacity:1;color-rendering:auto;image-rendering:auto;shape-rendering:auto;text-rendering:auto;enable-background:accumulate" />
      <path
         sodipodi:nodetypes="ssssssccsssssscs"
         inkscape:connector-curvature="0"
         id="path4304"
         d="m 93.410214,1028.5468 c -0.80678,1.0013 -2.269069,2.2624 -3.060406,3.0955 -2.069418,2.1785 -4.37375,3.124 -7.180646,4.2075 -2.339715,0.9031 -3.738253,3.1447 -5.810765,4.4963 -4.567974,2.979 -9.296584,4.7653 -14.91352,4.3979 -2.862324,-0.1871 -6.861781,-1.2927 -9.93042,-2.063 -2.115452,-0.5311 -4.473764,-1.3118 -6.239009,-2.0939 -0.271174,0.1504 -0.46995,0.2391 -0.750774,0.3847 1.92201,0.822 4.160949,1.8517 6.721538,2.7022 4.222319,1.4024 9.043637,2.3561 12.468632,2.4061 5.767562,0.084 11.328026,-2.92 15.545614,-6.7483 1.294704,-1.1752 2.582444,-2.3525 4.25455,-2.971 2.163358,-0.8003 4.307842,-1.8942 6.015269,-3.4372 1.549605,-1.4003 2.700646,-3.2035 3.905063,-4.8703 0.605042,-0.8373 1.914217,-2.6779 1.930073,-3.627 -0.796644,1.3321 -2.24768,3.2423 -2.955199,4.1205 z"
         style="color:#000000;font-style:normal;font-variant:normal;font-weight:normal;font-stretch:normal;font-size:medium;line-height:normal;font-family:sans-serif;text-indent:0;text-align:start;text-decoration:none;text-decoration-line:none;text-decoration-style:solid;text-decoration-color:#000000;letter-spacing:normal;word-spacing:normal;text-transform:none;direction:ltr;block-progression:tb;writing-mode:lr-tb;baseline-shift:baseline;text-anchor:start;white-space:normal;clip-rule:nonzero;display:inline;overflow:visible;visibility:visible;opacity:1;isolation:auto;mix-blend-mode:normal;color-interpolation:sRGB;color-interpolation-filters:linearRGB;solid-color:#000000;solid-opacity:1;fill:#94b7d6;fill-opacity:1;fill-rule:evenodd;stroke:none;stroke-width:1px;stroke-linecap:butt;stroke-linejoin:miter;stroke-miterlimit:4;stroke-dasharray:none;stroke-dashoffset:0;stroke-opacity:1;color-rendering:auto;image-rendering:auto;shape-rendering:auto;text-rendering:auto;enable-background:accumulate" />
      <path
         sodipodi:nodetypes="cssccsssc"
         inkscape:connector-curvature="0"
         id="path4306"
         d="m 71.935547,1023.8809 c -1.279705,2.2634 -1.790199,2.8765 -2.787266,4.0613 -1.5452,1.836 -3.439767,3.39 -5.511905,4.6066 -2.212914,1.2993 -4.409656,2.1737 -6.830637,3.034 -0.908618,0.734 -1.616971,1.3254 -3.540019,2.2599 3.327614,-1.1238 6.623788,-1.9769 9.7904,-3.4984 2.342648,-1.1256 4.48022,-3.011 5.973177,-4.9106 0.779648,-0.992 1.598532,-2.098 2.178364,-3.2333 0.411992,-0.8067 0.671778,-1.5327 0.727886,-2.3195 z"
         style="color:#000000;font-style:normal;font-variant:normal;font-weight:normal;font-stretch:normal;font-size:medium;line-height:normal;font-family:sans-serif;text-indent:0;text-align:start;text-decoration:none;text-decoration-line:none;text-decoration-style:solid;text-decoration-color:#000000;letter-spacing:normal;word-spacing:normal;text-transform:none;direction:ltr;block-progression:tb;writing-mode:lr-tb;baseline-shift:baseline;text-anchor:start;white-space:normal;clip-rule:nonzero;display:inline;overflow:visible;visibility:visible;opacity:1;isolation:auto;mix-blend-mode:normal;color-interpolation:sRGB;color-interpolation-filters:linearRGB;solid-color:#000000;solid-opacity:1;fill:#94b7d6;fill-opacity:1;fill-rule:evenodd;stroke:none;stroke-width:1px;stroke-linecap:butt;stroke-linejoin:miter;stroke-miterlimit:4;stroke-dasharray:none;stroke-dashoffset:0;stroke-opacity:1;color-rendering:auto;image-rendering:auto;shape-rendering:auto;text-rendering:auto;enable-background:accumulate" />
    </g>
    <path
       style="fill:#5897cf;fill-opacity:1;fill-rule:evenodd;stroke:none;stroke-width:0.35433072;stroke-linecap:butt;stroke-linejoin:miter;stroke-miterlimit:4;stroke-dasharray:none;stroke-opacity:1"
       d="m 60.369242,1023.5476 c -1.359934,0.4385 -0.199049,2.7675 0.176776,4.5078 -0.270635,1.7034 -0.943301,3.0047 -1.679378,4.2426 -1.820864,2.0447 -3.93572,3.9914 -7.159457,5.5685 l -13.258252,4.8614 c -2.718717,-0.031 -4.471889,-0.7856 -6.275572,-1.5026 l -8.927224,-3.8891 c -1.286646,-1.0705 -1.419624,-1.9635 0.353554,-2.5633 l 12.197592,-4.3309 c -4.933198,-4.4009 -11.923268,-7.9734 -15.556349,-17.943 -2.355064,-6.4625 -3.372934,-12.78375 -1.59099,-19.09183 L 23.069358,977.76244 8.131728,964.50418 C 5.34676,961.31301 2.2324032,957.68753 2.298097,950.7156 c -0.1472248,-1.18435 0.1955851,-2.07468 2.3864854,-1.85616 l 6.8942916,4.06587 c 3.454087,0.0774 6.516226,-0.89032 10.606601,0.88388 2.559089,1.6226 4.860874,2.92358 8.308505,5.65686 0.653904,-1.12002 1.76311,-0.96919 3.358757,0.26515 5.871298,-1.39502 6.296315,-0.28605 9.015612,0 1.533836,0.85029 2.689346,2.58333 4.861359,1.94454 2.180246,-0.39367 4.360492,-3.4076 6.540738,-5.12652 2.560092,-1.62499 3.337026,-0.27805 3.800699,1.59099 -0.05793,2.36618 0.695987,4.19113 -1.325826,7.86656 -1.683663,1.42675 -2.963263,3.33838 -5.745242,3.44715 l -7.071068,3.35875 -8.838835,6.8943 0.441942,16.35184 c 0.660142,2.92557 2.678036,5.17229 5.214912,7.15949 4.897163,2.4638 10.246742,4.1358 16.08668,4.9497 2.526978,-0.3898 5.022989,-0.7435 8.927222,-2.74 3.222256,-1.9827 5.91161,-2.34 9.369166,0.6187 l 7.159456,2.0329 16.705398,0.5304 c 2.66292,0.5198 2.27158,2.4279 2.47487,4.0658 -0.0874,1.6389 -1.42612,2.2768 -2.651647,3.0052 l -4.861359,0.088 c -3.599971,-1.9381 -5.410155,-1.1915 -7.689787,-1.149 l -11.667261,3.2703 -11.667262,4.773 z"
       id="path4334"
       inkscape:connector-curvature="0"
       sodipodi:nodetypes="cccccccccsscccccccccccccccccccccccccccccc" />
    <path
       style="display:inline;fill:url(#pattern5815-8);fill-opacity:1;fill-rule:evenodd;stroke:none;stroke-width:0.35433072;stroke-linecap:butt;stroke-linejoin:miter;stroke-miterlimit:4;stroke-dasharray:none;stroke-opacity:1;opacity:0.229"
       d="m 60.368934,1023.5476 c -1.35993,0.4385 -0.19905,2.7675 0.17678,4.5078 -0.27064,1.7034 -0.94331,3.0047 -1.67938,4.2426 -1.82087,2.0447 -3.93572,3.9914 -7.15946,5.5685 l -13.25825,4.8614 c -2.71872,-0.031 -4.47189,-0.7856 -6.27557,-1.5026 l -8.92723,-3.8891 c -1.28664,-1.0705 -1.41962,-1.9635 0.35356,-2.5633 l 12.19759,-4.3309 c -4.9332,-4.4009 -11.92327,-7.9734 -15.55635,-17.9431 -2.35506,-6.4625 -3.37293,-12.78375 -1.59099,-19.09183 l 4.41942,-15.64473 -14.9376397,-13.25826 c -2.78496,-3.19117 -5.89932,-6.81665 -5.83363,-13.78858 -0.14722,-1.18435 0.19559,-2.07468 2.38649,-1.85616 l 6.8942897,4.06587 c 3.45409,0.0774 6.51623,-0.89032 10.6066,0.88388 2.55909,1.6226 4.86088,2.92358 8.30851,5.65686 0.6539,-1.12002 1.76311,-0.96919 3.35875,0.26515 5.8713,-1.39502 6.29632,-0.28605 9.01562,0 1.53383,0.85029 2.68934,2.58333 4.86136,1.94454 2.18024,-0.39367 4.36049,-3.4076 6.54073,-5.12652 2.5601,-1.62499 3.33703,-0.27805 3.8007,1.59099 -0.0579,2.36618 0.69599,4.19113 -1.32582,7.86656 -1.68367,1.42675 -2.96327,3.33838 -5.74525,3.44715 l -7.07106,3.35875 -8.83884,6.8943 0.44194,16.35184 c 0.66015,2.92557 2.67804,5.17229 5.21492,7.15949 4.89716,2.4638 10.24674,4.1358 16.08668,4.9497 2.52697,-0.3898 5.02298,-0.7435 8.92722,-2.74 3.22225,-1.9827 5.91161,-2.34 9.36916,0.6187 l 7.15946,2.0329 16.7054,0.5304 c 2.662916,0.5198 2.271576,2.4279 2.474866,4.0658 -0.0874,1.639 -1.42612,2.2769 -2.651646,3.0053 l -4.86136,0.088 c -3.59997,-1.9381 -5.41015,-1.1915 -7.68979,-1.149 l -11.66726,3.2703 -11.66726,4.773 z"
       id="path4334-6"
       inkscape:connector-curvature="0"
       sodipodi:nodetypes="cccccccccsscccccccccccccccccccccccccccccc" />
    <path
       style="fill:#ffffff;fill-opacity:1;fill-rule:evenodd;stroke:#ff00ff;stroke-width:0.35433072;stroke-linecap:butt;stroke-linejoin:miter;stroke-miterlimit:4;stroke-dasharray:none;stroke-opacity:1"
       d="m 62.225397,1011.4384 c 1.414214,0.2204 2.828427,-0.2806 4.242641,-1.2374 1.495443,-0.9508 2.978405,-1.5106 4.24264,-1.7678 1.502602,0.5669 2.563262,0.6796 4.065864,3.9775 -1.156075,1.2629 -1.517758,2.5504 -4.24264,2.9168 -3.037408,-0.5596 -6.179923,-0.8302 -8.308505,-3.8891 z"
       id="path4332"
       inkscape:connector-curvature="0"
       sodipodi:nodetypes="cccccc" />
    <path
       style="color:#000000;display:inline;overflow:visible;visibility:visible;opacity:1;fill:#005430;fill-opacity:1;fill-rule:evenodd;stroke:none;stroke-width:0.35433072;stroke-linecap:round;stroke-linejoin:bevel;stroke-miterlimit:4;stroke-dasharray:none;stroke-dashoffset:0;stroke-opacity:1;marker:none;enable-background:accumulate"
       d="m 72.588805,1012.0074 c -8e-6,1.0616 -0.675834,1.9953 -1.657828,2.2904 -0.981992,0.2952 -2.033647,-0.1193 -2.579753,-1.0167 -0.546088,-0.8973 -0.455092,-2.0615 0.223214,-2.8557 0.678317,-0.7942 1.780576,-1.0272 2.703884,-0.5714 -0.908449,0.4845 -1.551201,1.0941 -1.389552,2.0822 0.830401,-0.7768 1.743255,-0.6054 2.700035,0.071 z"
       id="path4319"
       inkscape:connector-curvature="0"
       sodipodi:nodetypes="cscsccc" />
    <path
       style="fill:url(#radialGradient6005);fill-rule:evenodd;stroke:#ff0000;stroke-width:0.35433071;stroke-linecap:butt;stroke-linejoin:miter;stroke-opacity:1;stroke-miterlimit:4;stroke-dasharray:none;fill-opacity:1"
       d="m 66.717242,1021.1216 14.375,-5.25 7.75,-1.3125 6.25,1.375 -0.5625,1.25 0.75,1.875 -1.625,2.875 -11.375,1 z"
       id="path5989"
       inkscape:connector-curvature="0" />
    <path
       style="color:#000000;font-style:normal;font-variant:normal;font-weight:normal;font-stretch:normal;font-size:medium;line-height:normal;font-family:sans-serif;text-indent:0;text-align:start;text-decoration:none;text-decoration-line:none;text-decoration-style:solid;text-decoration-color:#000000;letter-spacing:normal;word-spacing:normal;text-transform:none;direction:ltr;block-progression:tb;writing-mode:lr-tb;baseline-shift:baseline;text-anchor:start;white-space:normal;clip-rule:nonzero;display:inline;overflow:visible;visibility:visible;opacity:1;isolation:auto;mix-blend-mode:normal;color-interpolation:sRGB;color-interpolation-filters:linearRGB;solid-color:#000000;solid-opacity:1;fill:#2e4776;fill-opacity:1;fill-rule:evenodd;stroke:none;stroke-width:2.83464575;stroke-linecap:butt;stroke-linejoin:miter;stroke-miterlimit:4;stroke-dasharray:none;stroke-dashoffset:0;stroke-opacity:1;color-rendering:auto;image-rendering:auto;shape-rendering:auto;text-rendering:auto;enable-background:accumulate"
       d="m 3.6523438,1.7519531 c -2.5077865,-0.00794 -2.3299975,1.507765 -2.5644532,3.0078125 -0.47731124,3.05383 1.3591515,7.1184774 2.6425782,9.5546874 2.3369911,4.4361 6.2630134,7.478214 10.1250002,10.583985 1.459676,1.17385 5.106511,4.484563 6.416015,5.777343 -0.864447,2.51721 -1.33109,3.790388 -2.386718,7.048828 -0.891707,2.75246 -2.079704,5.382378 -2.589844,7.773438 -1.548356,7.25725 -3.441739,14.828703 -0.78125,22.095703 2.798446,7.6438 7.191458,13.220184 13.261719,18.458984 -1.185521,0.6897 -2.52385,1.232832 -3.810547,1.582032 -1.267557,0.344 -2.360076,0.863978 -2.578125,1.705078 -0.499202,1.9255 2.45246,3.437837 5.673828,4.898437 2.952215,0.9049 5.730041,3.082744 9.001953,3.527344 1.907089,0.2591 4.302597,-0.566484 6.154297,-1.271484 11.08499,6.652599 25.3865,10.426219 37.105469,3.574219 4.247787,-2.483601 7.504794,-6.56651 12.361328,-7.97461 4.84438,-1.4046 4.489079,-8.291116 9.103516,-9.478516 3.00502,-0.7732 5.20825,-4.155165 4.12109,-6.410156 -0.496,-1.028809 -1.56078,-1.494147 -3.26953,-1.71289 -1.59717,-0.204458 -4.82149,0.409996 -6.351561,0.279296 -0.120036,-0.3769 0.53215,-1.15209 0.763672,-1.804687 0.222797,-0.628003 0.245358,-1.128835 -0.561772,-2.148935 1.012171,-0.5885 3.237029,-0.14324 3.661382,-0.24755 2.096299,-0.51529 3.723769,-2.779696 3.652339,-5.279296 -0.0518,-1.8131 -0.91618,-3.466507 -2.951168,-4.003907 -5.219417,-0.889 -7.828145,-0.992409 -13.113281,-0.537109 -2.286091,0.1969 -6.228397,0.06302 -8.070312,-0.771484 -2.552051,-1.1552 -5.771631,-4.040232 -8.644531,-4.269532 -3.4059,-0.2718 -5.847473,3.138863 -8.69336,4.289063 -1.393381,0.5632 -2.860571,0.9344 -4.542969,0.75 -5.320522,-0.5832 -10.124736,-2.28756 -14.800781,-4.943359 -2.232776,-1.268101 -4.052554,-3.323012 -4.998047,-5.394532 -1.550218,-3.39645 -0.901646,-7.44744 -0.925781,-11.4375 -0.0158,-2.61197 -0.138062,-3.035193 0.136719,-4.751953 1.01817,-0.6254 10.319282,-7.531387 11.757812,-8.117187 4.913751,-2.001 1.514027,-0.360516 6.447266,-2.572266 1.711291,-0.76723 2.821872,-2.13466 3.501953,-3.78125 1.164962,-2.82056 1.372391,-6.535766 0.546875,-9.322266 -0.371885,-1.2552896 -1.32856,-1.6884715 -2.001953,-1.8574215 -1.122369,-0.2816 -2.268301,0.5255819 -3.466797,1.6074215 -2.177884,1.96592 -4.70915,5.202465 -7.244141,3.734375 -1.514357,-0.87701 -2.71495,-1.838497 -4.173828,-2.117187 -2.874547,-0.54913 -5.809324,0.287251 -7.609375,0.90039 -0.481277,0.0936 -0.539883,-0.794861 -1.728515,-1.138671 -1.054304,-0.30495 -1.737723,0.781556 -2.138672,0.660156 C 26.948075,10.371037 25.377083,7.7635981 20.837891,6.3925781 18.4185,5.6618281 14.078867,6.025625 11.416016,5.390625 8.9786595,4.809395 6.6813007,2.8728556 4.9003906,1.8535156 4.4235191,1.7857681 4.010599,1.7530881 3.6523438,1.7519531 Z M 4.0390625,3.9375 c 2.1172985,1.27237 4.5313653,3.3566119 7.0351565,4.1699219 1.280618,0.41598 8.782302,0.2540887 10.263672,0.8554687 2.198115,0.89236 6.315939,2.1704314 9.06403,5.7787614 -0.212511,2.36693 -0.579201,6.313095 -0.979473,9.040095 -0.514051,3.50217 -1.141224,8.095452 -2.269071,10.534811 C 21.713163,29.427118 12.748849,21.419818 8,15.861328 5.415019,12.835628 2.7066747,7.80862 4.0390625,3.9375 Z m 51.2792965,7.541016 c 0.16085,0.003 0.327028,0.02592 0.498047,0.07031 2.431894,0.63131 0.897894,5.572585 -0.28125,7.615234 -1.05543,1.828341 -3.567969,2.685202 -5.96289,3.482422 -4.94099,1.64475 -8.991875,5.3207 -13.425782,9.09375 -0.426355,-2.79077 -0.08925,-7.36746 -0.304687,-10.18164 -0.175762,-2.29592 -0.484049,-4.595873 -1.142578,-7.070313 2.403846,-0.21208 4.119584,-0.140143 6.068359,0.529297 2.669737,0.91711 5.278149,2.449009 8.160156,1.56836 2.632368,-0.804375 3.977884,-5.152349 6.390625,-5.10742 z m -23.347656,2.322265 c 1.366644,0.0471 2.11705,4.189617 2.158203,6.498047 0.106185,5.95624 -0.288281,12.043025 -0.144531,16.677734 0.08148,2.711941 -0.09691,9.297544 -0.0332,11.902344 0.05987,2.44763 1.558154,4.840337 3.371094,6.748047 2.13703,2.2487 4.650228,3.574566 7.470703,4.759766 3.526705,1.4819 7.789132,2.201915 11.595703,2.666015 1.985461,0.2421 3.816681,-0.2851 5.585937,-1 2.743657,-1.1086 5.340596,-2.734684 8.113282,-2.521484 2.970119,0.2283 5.250342,2.544191 7.910156,3.212891 3.546636,0.8917 7.399273,0.222378 11.136719,0.517578 2.442085,0.1929 7.716347,-0.456238 9.791015,0.976562 1.05114,0.726 1.728536,2.34622 -0.0957,4.16211 -0.505423,0.50311 -3.498655,1.119987 -5.115234,0.367187 -5.399385,-2.5144 -11.757302,-0.06803 -17.195313,1.546875 -3.590758,1.0663 -7.023263,2.561713 -10.390625,4.195313 -1.997102,0.9688 -3.97164,1.985987 -5.943359,2.992187 1.78754,0.4932 5.316905,-1.78724 7.716797,-1.431641 4.123225,0.7686 9.303834,1.181205 14.476562,1.210938 3.960871,0.02277 7.908704,-0.257641 11.390625,-0.619141 3.569248,-0.3705 8.314103,-1.363821 8.582033,0.767579 0.48686,3.872999 -6.153909,3.443271 -7.457033,7.826171 -1.620535,5.4505 -8.852661,5.27055 -12.648437,9.09375 -6.272666,6.318001 -15.979397,7.927311 -24.449219,5.912111 -4.080033,-0.970801 -9.903402,-3.630323 -12.832031,-5.044923 1.299642,-0.7408 2.542684,-1.202253 4.097656,-1.751953 3.14297,-1.111 5.809736,-2.117147 8.363281,-4.498047 0.763707,-0.7121 2.193889,-2.25995 2.63086,-3.59375 0.61578,-1.8796 1.0216,-3.086759 0.53125,-3.880859 -0.307637,0.371399 -0.979405,2.517859 -1.839844,3.693359 -1.137406,1.5539 -2.866436,2.755284 -4.449219,3.958984 -2.29511,1.7454 -4.918889,2.913303 -7.849609,2.595703 -1.331853,1.3429 -3.02889,2.126222 -4.832031,2.857422 -2.201567,0.8927 -4.582663,1.513981 -6.921876,0.550782 -1.347746,-0.9252 -4.940248,-1.76181 -7.55664,-2.84961 C 25.158633,91.475628 23.73738,90.5079 24.269537,89.25 c 1.953541,-0.6102 4.228167,-1.507016 6.335938,-2.291016 2.103792,-0.7825 4.03963,-1.451684 6.03125,-1.958984 1.624053,-0.4137 3.513092,-0.977737 5.376953,-0.710938 1.417179,0.2029 4.179705,0.844419 6,1.511719 -0.855828,-0.9993 -1.805271,-1.517768 -3.126953,-2.230469 1.22136,-0.5478 3.251972,-1.511625 5.941406,-1.578124 2.013773,-0.05 2.937676,0.597356 3.285156,0.722656 -0.867498,-1.5174 -1.636701,-1.912903 -2.867187,-2.033203 -2.480552,-0.2427 -6.837697,1.355556 -8.253906,2.222656 -1.93154,-0.3924 -4.011216,-0.102128 -6.03125,0.388672 -2.284839,0.5552 -4.493221,1.366822 -6.330079,1.732422 -3.903923,-3.3136 -7.650658,-7.229038 -10.412109,-11.648438 -2.686223,-4.2991 -4.441558,-9.075541 -4.5,-14.244141 -0.07517,-6.64791 1.465111,-13.344281 3.716797,-19.544921 0.897735,-2.47216 1.880066,-5.193595 2.361328,-7.328125 1.068969,1.256 4.175986,3.072187 5.646484,4.248046 1.686815,-2.57968 2.607972,-9.480066 3.19336,-12.873046 0.407163,-2.35996 0.332129,-4.638179 0.5,-7.011719 0.05832,-0.82465 0.227642,-2.335856 0.833978,-2.822266 z m 38.417969,47.646485 c -0.151912,0.0024 -0.305161,0.01695 -0.460938,0.04297 -1.616528,0.27 -3.529498,2.138113 -5.654296,2.882813 -1.386219,0.4859 -2.520487,0.1068 -3.642579,0.625 0.848531,0.7958 1.722938,2.308866 3.310547,3.134765 2.067786,1.0758 4.977081,1.886382 6.839844,1.675782 C 73.237028,69.530896 75.337631,67.88128 76,65.58008 74.514221,63.923236 72.667353,61.411624 70.388672,61.447266 Z m -0.466797,1.814453 c 1.867645,0.043 3.825019,1.916859 3.685547,3.005859 -0.07593,0.5929 -1.583797,2.138872 -3.292969,2.263672 -1.958036,0.1431 -6.029746,-1.408081 -6.123047,-2.363281 -0.03625,-0.3712 1.237758,-0.5148 2.773438,-1.25 1.016107,-0.4864 1.811361,-1.68295 2.957031,-1.65625 z m 19.310202,6.492187 c -0.286798,0.909167 -0.849467,1.936107 -0.370749,2.779297 0.518348,0.912991 -0.115041,1.799757 -0.560547,2.529297 -0.156415,0.256138 -0.510819,0.536753 -0.65039,0.787109 -0.459861,0.03782 -1.250606,0.0891 -1.708409,0.106082 0.5693,-0.955583 1.731732,-2.111506 1.331456,-3.236941 -0.361933,-1.017628 -0.339586,-1.985693 -0.0067,-2.901731 0.655581,-0.04874 1.308936,-0.05898 1.965379,-0.06311 z m 0.928079,0.02344 c 0.546576,0.02492 1.202874,0.111262 1.620137,0.169194 -0.228261,0.852799 -0.585799,1.786097 0.08689,2.403799 0.834883,0.766632 -0.216142,1.826022 -0.626954,2.477788 -0.137128,0.217558 -0.395357,0.417371 -0.513672,0.615234 -0.543368,0.09632 -1.359147,0.2453 -1.871246,0.312385 0.660348,-0.896537 1.924204,-2.142148 1.457452,-3.214613 -0.342879,-0.78784 -0.560286,-1.569196 -0.310815,-2.339959 0.0566,-0.17486 0.134883,-0.29839 0.158208,-0.423828 z m -3.696882,0.11914 c -0.335248,0.854396 -0.950931,1.845257 -0.496477,2.654297 0.506492,0.90168 -0.02577,1.723852 -0.380859,2.478516 -0.138317,0.293964 -0.516754,0.647109 -0.580079,0.927734 -0.376137,-2.14e-4 -1.114552,0.02429 -1.503331,0.01294 0.533235,-0.854854 1.435001,-1.934275 0.981847,-2.866459 -0.349928,-0.719838 -0.50922,-1.362114 -0.222656,-2.142578 0.08705,-0.237092 0.184891,-0.549834 0.361328,-0.835938 0.604522,-0.09977 1.318672,-0.1745 1.840227,-0.228512 z m 6.204695,0.201172 c 0.483917,0.106785 0.945882,0.222621 1.433593,0.341797 -0.715315,0.9916 0.666424,1.593823 0.460938,2.357422 -0.198813,0.738801 -1.271533,1.463866 -1.599609,2.197266 -0.21747,0.04962 -0.946932,0.220069 -1.157283,0.265395 0.536327,-0.732461 1.74412,-1.761609 1.648513,-2.687768 -0.07649,-0.740946 -1.13181,-0.945422 -0.93459,-1.806143 0.04451,-0.194256 0.05083,-0.434414 0.148438,-0.667969 z m -9.08567,0.181756 c -0.277381,0.702053 -0.868174,1.54342 -0.590111,2.253791 0.323755,0.8271 0.654268,1.549282 0.173828,2.429688 -0.147382,0.270077 -0.384383,0.620417 -0.613282,0.910156 -0.573049,-0.0034 -1.054824,-0.065 -1.639552,-0.14051 0.513636,-0.836109 0.959948,-1.7775 0.565334,-2.779412 -0.297684,-0.755811 -0.116766,-1.489971 0.209559,-2.231925 0.455665,-0.101477 1.462563,-0.35689 1.894224,-0.441788 z m -2.82058,0.646369 c -0.257483,0.710977 -0.62406,1.490215 -0.34961,2.201172 0.30238,0.783308 0.273521,1.527815 -0.191406,2.173828 -0.107668,0.149603 -0.216469,0.284494 -0.298828,0.417969 -0.471045,-0.03059 -1.045907,-0.07627 -1.590112,-0.113894 0.32458,-0.659255 0.896639,-1.361081 0.666284,-2.0697 -0.257475,-0.792046 -0.120186,-1.535104 0.263672,-2.230468 0.50948,-0.135401 1.005183,-0.258354 1.5,-0.378907 z m -2.454428,0.59532 c -0.237575,0.686561 -0.544731,1.513897 -0.348307,2.250383 0.163753,0.613986 -0.238279,1.21743 -0.552734,1.767578 -0.510585,-0.03758 -1.274241,-0.09663 -1.794462,-0.139284 0.369903,-0.615479 0.938129,-1.244768 0.866728,-1.97009 -0.04897,-0.497441 0.11313,-0.974923 0.320312,-1.431641 0.379793,-0.113492 1.130678,-0.36972 1.508463,-0.476946 z m -2.512217,0.74866 c -0.106252,0.371955 -0.384099,0.876487 -0.377105,1.279067 0.01132,0.651783 -0.367754,1.232874 -0.716797,1.777344 -0.515329,-0.04695 -1.439753,-0.141002 -1.915939,-0.192632 0.22106,-0.44128 0.766995,-0.869899 0.658126,-1.371821 -0.05551,-0.25592 0.113625,-0.523341 0.292969,-0.78125 0.586166,-0.19956 1.462798,-0.522429 2.058746,-0.710708 z m -3.059934,1.081304 c -0.05012,0.259585 -0.365573,0.611692 -0.321078,0.885263 0.04511,0.277339 -0.166764,0.543955 -0.375,0.796875 -1.233766,-0.164 -2.169025,-0.345658 -2.365234,-0.542969 0.869617,-0.358403 2.109498,-0.796221 3.061312,-1.139169 z"
       transform="translate(0,946.06299)"
       id="path4170"
       inkscape:connector-curvature="0"
       sodipodi:nodetypes="sssscssscsccccsscsscscsscccccsssscsssssssscscsscscsscscscsssscscssscscssccsccscssscccscsssccccscsscccccsccccccccccsssccsscsscccccscscccccssccsccccssccsscccsccssccccsccsscccsccsccccsccsccccccsccccccscccccccc" />
  </g>
</svg>
